<svg width="2825" height="2855" viewBox="0 0 2825 2855" fill="none" xmlns="http://www.w3.org/2000/svg">
<g clip-path="url(#clip0_71_17)">
<rect width="2825" height="2855" rx="258" fill="white"/>
<path d="M-41.8335 1427.67V2882.17H1412.17H2866.17V1427.67V-26.8334H1412.17H-41.8335V1427.67ZM1178.31 413.494C1186.68 414.772 1189.24 415.766 1192.79 419.175C1196.48 422.868 1197.05 424.573 1197.47 432.953C1197.9 441.76 1197.62 443.038 1193.92 448.294C1189.66 454.117 1170.21 468.179 1135.99 490.196C1125.91 496.73 1107.03 508.945 1094.1 517.184C1060.45 538.916 1010.61 570.733 987.894 584.937C980.652 589.483 965.033 599.283 953.106 606.812C941.178 614.34 923.003 625.845 912.638 632.379C902.273 638.913 888.215 647.861 881.4 652.265C874.584 656.668 864.645 662.918 859.107 666.185C853.711 669.452 843.772 675.559 837.098 679.821C830.424 684.082 819.065 691.184 811.682 695.729C783.425 713.058 765.96 725.7 748.353 741.324C740.827 748 725.208 766.182 718.819 775.698C710.157 788.482 703.057 801.266 678.777 848.139C667.275 870.44 649.81 903.677 640.013 922.001C630.215 940.324 616.016 967.17 608.491 981.658C600.965 996.146 589.748 1017.17 583.642 1028.53C568.733 1056.37 548.996 1093.59 537.779 1115.18C532.809 1124.98 526.135 1137.19 523.153 1142.45C520.03 1147.56 517.616 1152.39 517.616 1152.96C517.616 1153.95 503.558 1180.66 483.112 1218.16C477.574 1228.24 471.184 1240.31 468.912 1244.86C462.807 1257.64 448.04 1282.78 443.212 1289.03C437.816 1295.99 428.445 1300.4 422.055 1298.98C410.412 1296.56 405.016 1291.31 401.182 1278.81C398.342 1269.86 398.342 1264.18 398.342 931.375C398.342 600.846 398.484 592.749 401.182 574.852C402.744 564.767 405.3 552.126 407.004 546.728C411.122 532.808 423.901 506.246 432.704 493.321C442.218 479.401 469.906 451.703 482.828 443.038C494.755 435.226 515.486 425.283 531.247 420.17C555.244 412.073 543.032 412.357 868.052 412.215C1064 412.215 1171.63 412.641 1178.31 413.494ZM2269.94 414.204C2288.12 416.903 2299.05 420.454 2320.21 430.539C2344.91 442.186 2365.22 458.521 2383.68 481.531C2395.89 496.588 2400.57 504.4 2408.81 522.723C2417.61 542.325 2419.46 548.717 2423.15 571.159C2425.99 588.63 2425.99 593.744 2425.99 930.949V1272.98L2423.01 1281.79C2421.45 1286.62 2419.32 1291.45 2418.47 1292.44C2415.91 1295.57 2407.53 1298.41 2400.43 1298.41C2393.05 1298.41 2384.67 1293.58 2379.99 1286.34C2376.72 1281.51 2356.7 1246 2352.3 1237.33C2346.33 1225.97 2320.21 1176.25 2308.56 1154.24C2302.32 1142.45 2290.39 1119.86 2281.87 1103.81C2257.02 1056.23 2214.85 976.828 2203.06 954.67C2196.96 943.307 2179.21 909.785 2163.59 880.098C2147.97 850.412 2133.2 822.288 2130.65 817.6C2128.09 812.913 2123.55 804.249 2120.42 798.425C2100.54 761.352 2072.71 733.37 2027.42 704.962C1993.77 683.94 1975.02 672.434 1961.11 664.338C1934.27 648.572 1898.06 626.555 1888.55 619.879C1877.33 612.067 1870.09 603.403 1862.57 588.346C1857.6 578.119 1857.31 577.125 1857.31 563.489C1857.31 546.87 1858.31 543.745 1875.49 505.536C1895.93 460.367 1902.89 448.01 1914.25 436.788C1926.18 425.141 1938.53 418.323 1954.58 414.772C1964.23 412.499 1979 412.357 2110.48 412.215C2233.31 412.073 2257.87 412.357 2269.94 414.204ZM1450.93 432.527C1464.28 435.936 1479.75 442.896 1498.07 453.691C1540.81 478.833 1554.16 488.349 1554.16 493.463C1554.16 496.872 1542.09 498.008 1504.46 498.008H1471.09L1453.77 491.9C1433.75 484.94 1421.11 483.378 1405.07 485.793C1391.29 487.781 1372.41 497.156 1343.3 516.331C1324.27 528.973 1277.56 559.512 1209.4 603.971C1197.9 611.499 1157.57 637.492 1119.66 661.781C1081.75 686.07 1040.29 712.774 1027.37 721.155C990.166 745.444 982.64 750.273 958.217 765.897C945.58 773.994 929.109 784.505 921.583 789.192C854.279 831.094 837.666 846.151 814.663 885.07C810.83 891.746 801.742 908.365 794.5 922.001C787.259 935.636 778.313 952.255 774.622 958.931C770.93 965.607 760.706 984.783 751.903 1001.54C743.099 1018.3 732.166 1038.76 727.764 1047C723.362 1055.23 718.677 1063.76 717.541 1066.17C712.145 1077.25 692.692 1114.18 687.296 1123.7C681.475 1134.07 677.073 1142.31 653.218 1187.62C646.829 1199.69 639.587 1213.18 637.315 1217.45C632.345 1226.39 603.947 1279.66 586.198 1313.32C579.524 1325.82 572.425 1338.89 570.437 1342.44C561.491 1357.92 548.286 1386.62 545.872 1395.71C540.05 1417.58 541.044 1445.14 548.144 1465.73C552.262 1477.81 589.038 1552.09 594.291 1559.05C594.859 1559.76 599.119 1567.86 603.947 1576.81C616.158 1600.39 637.599 1640.87 651.088 1666.3C657.478 1678.37 668.411 1698.82 675.227 1711.75C682.043 1724.67 692.266 1743.85 697.946 1754.36C708.595 1774.25 713.565 1783.62 740.543 1835.32C749.347 1852.09 759.428 1871.26 762.836 1877.94C766.386 1884.61 770.93 1893.13 773.202 1897.11C775.332 1900.95 780.443 1910.61 784.561 1918.42C795.778 1939.72 806.712 1955.49 818.639 1967.42C830.992 1979.92 852.007 1996.4 865.355 2004.35C870.466 2007.34 880.974 2013.87 888.499 2018.84C896.167 2023.81 909.656 2032.19 918.744 2037.73C927.689 2043.13 954.242 2059.46 977.528 2073.95C1000.82 2088.44 1026.66 2104.35 1035.04 2109.46C1063.58 2126.79 1092.12 2145.97 1095.24 2149.95C1105.04 2162.3 1100.78 2184.46 1087.43 2191.71C1078.2 2196.53 1067.84 2192.42 1027.94 2167.98C1017.85 2161.88 1006.07 2154.63 1001.81 2152.08C997.549 2149.38 991.728 2145.97 989.03 2144.12C986.332 2142.42 978.948 2137.87 972.701 2134.04C966.453 2130.2 953.39 2121.96 943.592 2115.86C933.795 2109.75 919.454 2100.8 911.644 2095.97C903.834 2091.14 887.931 2081.2 876.43 2073.81C864.787 2066.42 849.309 2056.91 842.068 2052.36C806.002 2030.63 778.029 2004.5 755.879 1971.83C750.341 1963.73 737.704 1941.57 727.764 1922.82C706.323 1881.91 685.45 1842.43 669.973 1813.31C663.726 1801.52 651.798 1778.93 643.279 1762.88C628.654 1735.04 616.584 1712.17 595.711 1673.4C590.458 1663.6 578.53 1641.3 569.301 1623.68C560.071 1606.07 550.7 1588.46 548.57 1584.62C541.47 1571.98 506.398 1503.52 500.719 1491.3C491.489 1471.7 486.093 1442.58 487.371 1419.85C488.081 1407.64 492.767 1384.34 496.601 1373.98C499.583 1365.88 518.468 1328.66 537.921 1292.02C544.168 1280.23 554.108 1261.48 560.213 1250.12C566.177 1238.75 575.832 1220.85 581.512 1210.34C596.989 1181.79 649.526 1083.22 671.393 1042.03C687.864 1010.78 704.903 978.675 717.825 954.67C723.504 944.159 734.154 923.989 741.679 909.927C765.108 865.326 771.072 854.957 781.437 839.759C796.062 818.169 804.866 808.084 821.479 793.737C837.24 780.102 851.155 770.727 934.363 717.888C946.148 710.501 959.779 701.695 964.891 698.286C970.003 695.019 983.35 686.354 994.709 679.11C1006.07 671.866 1026.52 658.514 1040.15 649.424C1053.78 640.475 1073.09 627.834 1083.03 621.584C1092.97 615.334 1127.33 593.034 1159.42 572.011C1191.65 550.989 1221.9 531.53 1226.58 528.689C1235.67 523.291 1285.65 490.48 1326.55 463.066C1339.18 454.544 1353.95 445.453 1359.2 442.896C1389.16 427.84 1419.12 424.573 1450.93 432.527ZM1680.53 578.261C1685.64 579.114 1694.3 581.954 1699.98 584.653C1719.15 594.028 1728.1 609.51 1728.1 632.947C1728.1 641.754 1727.25 648.145 1725.4 653.543C1722.28 662.634 1705.24 702.831 1652.84 824.702C1631.97 873.138 1610.53 922.995 1605.28 935.494C1600.02 947.994 1590.79 969.442 1584.69 983.078C1578.72 996.714 1567.93 1021.71 1560.55 1038.47C1553.31 1055.23 1542.52 1080.23 1536.41 1093.87C1530.45 1107.51 1520.79 1129.52 1515.11 1142.87C1509.43 1156.08 1502.33 1172.13 1499.49 1178.38C1488.56 1201.96 1480.18 1226.25 1480.18 1234.63C1480.04 1249.83 1489.27 1262.33 1505.31 1268.72L1513.69 1272.13L1663.49 1272.84C1800.09 1273.55 1813.86 1273.84 1820.39 1275.97C1830.19 1279.38 1838.14 1286.48 1843.96 1297.27C1848.65 1305.94 1848.79 1306.65 1848.79 1322.56V1338.89L1841.69 1351.39C1837.86 1358.21 1819.4 1385.91 1800.66 1413.04C1782.06 1440.31 1761.61 1470.14 1755.36 1479.51C1744.57 1495.42 1719.86 1531.21 1678.4 1591.01C1668.89 1604.65 1647.59 1635.61 1630.83 1659.9C1614.22 1684.05 1597.47 1708.34 1593.63 1713.88C1582.84 1729.36 1547.63 1780.5 1536.41 1796.97C1530.87 1805.21 1520.36 1820.55 1512.98 1831.06C1505.74 1841.57 1495.23 1856.91 1489.55 1865.15C1484.01 1873.39 1473.79 1888.31 1466.69 1898.39C1442.69 1933.19 1426.37 1956.91 1390.44 2008.9C1354.94 2060.6 1341.03 2080.77 1329.95 2096.68C1323.71 2105.63 1314.48 2119.12 1309.36 2126.51C1298.57 2142.13 1283.95 2163.01 1263.22 2192.7C1254.98 2204.35 1245.18 2218.69 1241.21 2224.52C1213.8 2264.71 1193.21 2290.71 1183.84 2297.24C1179.16 2300.51 1175.18 2301.93 1169.93 2302.36C1157.57 2303.35 1152.32 2297.53 1152.32 2282.47C1152.32 2270.96 1155.3 2260.6 1186.4 2163.44C1192.65 2144.26 1202.02 2114.58 1207.56 2097.39C1223.74 2046.11 1245.61 1977.08 1255.41 1946.83C1260.38 1931.2 1268.33 1906.2 1273.16 1891.43C1277.84 1876.52 1284.23 1855.78 1287.36 1845.27C1290.48 1834.76 1296.73 1814.59 1301.41 1800.52C1305.96 1786.46 1314.19 1760.89 1319.59 1743.71C1324.98 1726.52 1333.22 1700.95 1337.62 1686.89C1349.83 1648.68 1352.53 1638.17 1352.53 1628.09C1352.53 1613.88 1350.26 1608.48 1340.46 1598.68C1325.27 1583.77 1338.47 1584.76 1166.52 1583.91C1004.22 1583.06 1013.31 1583.63 998.401 1574.82C991.444 1570.7 983.492 1560.76 978.948 1550.53C976.392 1544.71 975.966 1541.73 976.534 1530.08C977.102 1518.43 978.238 1513.03 985.054 1492.3C989.456 1478.94 997.549 1453.8 1003.23 1436.19C1008.91 1418.58 1018.85 1387.9 1025.24 1368.01C1037.17 1331.5 1053.64 1280.65 1074.51 1215.32C1080.76 1195.71 1090.84 1164.46 1096.94 1145.72C1103.05 1126.97 1112.28 1098.13 1117.53 1081.8C1122.79 1065.32 1132.02 1036.91 1138.12 1018.59C1144.23 1000.27 1151.47 977.539 1154.45 968.164C1157.29 958.789 1161.69 945.011 1164.39 937.625C1168.79 924.699 1184.98 874.843 1192.93 849.56C1194.92 842.884 1203.58 816.038 1212.1 789.902C1233.97 722.859 1240.5 707.661 1257.39 686.639C1273.72 666.185 1287.36 655.674 1349.69 614.908C1383.77 592.607 1410.32 582.238 1444.11 577.835C1454.2 576.557 1671.87 576.983 1680.53 578.261ZM1835.3 687.633C1848.93 694.309 1910.56 731.097 1967.92 766.75C2014.92 796.01 2037.36 821.72 2071.01 885.07C2078.25 898.706 2089.04 919.16 2095.15 930.523C2105.66 950.125 2127.38 990.89 2152.66 1038.47C2159.19 1050.55 2169.69 1070.43 2176.08 1082.51C2182.62 1094.58 2192.56 1113.19 2198.09 1123.7C2210.3 1146.71 2227.06 1178.1 2242.11 1206.08C2307.71 1328.24 2328.16 1369.29 2333.13 1388.61C2338.52 1409.34 2339.38 1437.04 2335.12 1457.5C2331.42 1475.53 2327.87 1486.47 2321.63 1498.69C2308.56 1524.54 2294.65 1551.38 2284 1571.13C2267.81 1601.52 2252.48 1630.22 2238.28 1657.06C2231.6 1669.56 2220.95 1689.73 2214.42 1701.81C2203.63 1722.12 2189.01 1749.67 2169.41 1787.03C2165.01 1795.27 2160.04 1804.5 2158.34 1807.63C2155.5 1812.74 2148.11 1826.66 2127.1 1867.28C2097.99 1923.53 2079.96 1956.49 2070.58 1970.26C2049.85 2001.09 2021.31 2028.22 1981.27 2054.78C1964.23 2066 1960.4 2068.7 1937.68 2084.46C1926.32 2092.42 1914.11 2100.66 1910.42 2103.07C1906.73 2105.34 1887.98 2118.13 1868.67 2131.48C1849.36 2144.69 1826.5 2160.46 1817.7 2166.28C1779.07 2192.56 1769.13 2199.38 1766.44 2201.79C1764.88 2203.21 1749.68 2213.72 1732.64 2225.37C1686.92 2256.62 1684.51 2258.32 1643.61 2286.87C1622.88 2301.22 1599.31 2317.7 1591.08 2323.24C1578.01 2332.04 1536.84 2360.88 1520.79 2372.38C1475.07 2405.19 1451.21 2418.4 1426.79 2424.08C1410.18 2428.06 1385.76 2426.5 1367.58 2420.53C1345.86 2413.15 1275.14 2370.96 1265.35 2359.46C1258.25 2350.93 1257.25 2339.43 1263.07 2330.05C1267.19 2323.24 1273.44 2320.39 1284.66 2320.54C1292.75 2320.68 1295.73 2321.53 1305.25 2326.36C1311.35 2329.48 1320.72 2334.74 1325.98 2338.01C1342.87 2348.38 1367.3 2360.73 1378.23 2364.57C1391.29 2369.11 1408.33 2370.39 1421.4 2367.98C1433.18 2365.71 1455.62 2354.48 1474.5 2341.42C1482.03 2336.16 1493.95 2327.92 1500.91 2323.24C1508.01 2318.41 1524.91 2306.62 1538.54 2296.96C1566.94 2276.93 1584.97 2264.43 1610.39 2247.24C1630.41 2233.75 1655.4 2216.28 1673.43 2203.35C1680.11 2198.52 1689.62 2191.71 1694.73 2188.01C1699.84 2184.32 1712.62 2175.51 1723.13 2168.41C1733.64 2161.31 1756.92 2145.26 1774.67 2132.76C1792.56 2120.4 1812.73 2106.34 1819.54 2101.65C1876.91 2062.16 1939.38 2019.55 1956.71 2008.05C1981.98 1991.14 2002.71 1973.67 2014.64 1958.9C2029.55 1940.29 2036.51 1928.22 2076.12 1852.37C2102.25 1802.23 2122.41 1763.88 2145.84 1720.27C2148.96 1714.45 2158.34 1696.83 2166.57 1681.21C2174.81 1665.59 2191.85 1633.34 2204.48 1609.48C2258.58 1508.06 2272.64 1480.36 2277.47 1465.73C2282.86 1449.68 2284.57 1433.06 2282.58 1416.3C2279.74 1391.45 2275.19 1379.51 2252.76 1338.18C2248.22 1329.94 2240.12 1314.6 2234.59 1304.09C2225.21 1285.91 2220.53 1277.25 2193.12 1225.97C2186.73 1213.89 2175.66 1193.01 2168.56 1179.8C2161.6 1166.45 2151.38 1147.28 2145.84 1137.19C2137.04 1120.72 2120.71 1089.61 2098.84 1047.71C2090.32 1031.51 2060.64 975.55 2043.61 944.017C2018.76 897.569 2003.42 871.15 1995.75 860.923C1986.81 849.276 1970.2 832.373 1960.54 825.271C1955.29 821.435 1913.54 795.584 1890.68 782.09C1886.42 779.533 1871.09 770.301 1856.6 761.494C1842.12 752.688 1825.08 742.461 1818.83 738.626C1803.5 729.535 1798.53 725.132 1795.4 718.172C1789.16 704.678 1793.98 689.337 1806.19 683.94C1814.15 680.389 1822.38 681.525 1835.3 687.633ZM1129.46 768.312C1132.87 774.704 1121.51 812.203 1111.99 826.265C1104.61 837.344 1100.64 840.469 1073.37 857.94C1059.32 866.889 1042.84 877.4 1036.6 881.519C1030.35 885.638 1013.17 896.859 998.259 906.518C961.625 930.097 945.58 943.591 931.949 961.772C925.559 970.294 909.23 999.839 876.146 1062.62C833.548 1143.44 827.727 1154.52 808.7 1189.75C800.748 1204.52 791.093 1222.42 787.401 1229.52C763.262 1275.54 734.864 1328.66 727.054 1342.44C715.127 1363.61 700.786 1395.71 698.514 1406.5C695.39 1420.85 696.526 1444.57 700.786 1458.21C704.051 1468.29 716.405 1493.57 739.265 1536.33C746.365 1549.54 757.015 1569.71 762.836 1581.07C768.8 1592.43 774.764 1603.51 776.041 1605.93C777.461 1608.2 788.537 1629.08 800.606 1652.09C812.675 1675.1 827.585 1703.51 833.832 1715.3C844.056 1734.48 871.46 1786.18 878.986 1800.52C918.176 1875.24 922.577 1880.07 999.111 1926.66C1019.7 1939.16 1072.38 1970.97 1087 1979.64C1128.32 2004.07 1132.73 2007.62 1138.83 2019.41C1145.36 2032.48 1144.09 2047.82 1135.71 2056.06C1132.87 2059.04 1130.74 2059.75 1125.48 2059.75C1118.53 2059.75 1106.6 2053.78 1070.68 2032.48C1013.03 1998.39 1005.22 1993.7 979.942 1977.93C969.719 1971.68 955.236 1962.88 947.852 1958.62C924.565 1944.98 905.254 1930.07 889.493 1913.87C867.768 1891.29 860.385 1879.64 824.319 1811.18C808.7 1781.49 787.969 1742.29 778.171 1723.82C774.906 1717.57 768.658 1705.78 764.256 1697.54C752.755 1675.39 731.03 1634.34 718.535 1610.9C712.571 1599.54 702.49 1580.36 696.242 1568.29C689.994 1556.21 683.321 1543.71 681.617 1540.59C677.357 1533.06 661.88 1503.37 655.916 1491.44C641.717 1462.61 637.741 1425.25 645.551 1394.29C648.39 1383.35 656.058 1363.46 661.17 1354.37C662.59 1351.82 667.985 1341.59 673.097 1331.65C678.351 1321.56 683.179 1312.61 683.889 1311.76C684.74 1310.77 691.272 1298.69 698.514 1284.77C705.755 1270.71 716.121 1251.39 721.374 1241.59C726.628 1231.79 737.278 1212.05 744.803 1197.56C752.471 1183.07 762.694 1163.9 767.522 1154.95C772.35 1146 783.993 1123.84 793.365 1105.94C802.736 1087.9 814.379 1065.89 819.349 1056.94C824.177 1047.99 833.832 1029.67 840.648 1016.46C872.596 954.67 891.339 924.699 910.224 905.524C922.151 893.45 947.142 873.423 956.514 868.593C958.785 867.457 967.589 861.917 976.108 856.236C990.876 846.435 1011.18 833.367 1042.28 813.481C1050.09 808.51 1065.14 798.851 1075.64 792.033C1115.83 766.182 1125.91 761.778 1129.46 768.312ZM1774.96 811.777C1778.93 813.623 1798.67 825.129 1818.97 837.486C1839.28 849.844 1861.57 863.48 1868.53 867.599C1896.22 884.36 1918.37 904.245 1933.42 925.552C1941.66 937.057 1958.98 966.459 1967.36 983.078C1969.91 988.192 1975.73 998.987 1980.14 1007.23C1988.23 1022 2017.62 1077.54 2033.38 1107.36C2037.93 1115.89 2045.88 1130.94 2051.13 1140.74C2056.38 1150.54 2065.47 1167.45 2071.29 1178.38C2077.26 1189.32 2083.22 1200.83 2084.64 1203.95C2086.06 1207.08 2088.62 1211.91 2090.18 1214.61C2093.16 1219.43 2114.18 1258.78 2127.81 1284.92C2131.5 1291.88 2138.74 1305.51 2143.85 1314.89C2149.11 1324.4 2153.37 1332.5 2153.37 1332.93C2153.37 1333.35 2157.48 1341.31 2162.6 1350.4C2176.51 1375.96 2186.45 1410.76 2185.17 1430.51C2183.04 1465.59 2178.92 1475.68 2126.67 1573.26C2102.67 1618.29 2091.32 1639.59 2084.5 1652.8C2070.02 1680.36 2027.84 1760.61 2013.5 1787.74C1961.96 1885.46 1958.84 1890.44 1934.13 1916C1920.36 1930.21 1907.15 1940.72 1876.48 1961.74C1865.97 1968.84 1856.03 1975.94 1854.47 1977.37C1852.91 1978.64 1837.72 1989.3 1820.82 2000.94C1786.03 2024.81 1775.24 2032.34 1740.88 2056.2C1727.67 2065.43 1708.79 2078.5 1698.99 2085.03C1689.19 2091.71 1669.46 2105.49 1654.97 2115.71C1640.49 2125.8 1623.02 2138.01 1615.93 2142.84C1608.97 2147.67 1595.05 2157.33 1585.11 2164.29C1575.03 2171.25 1559.98 2181.76 1551.46 2187.59C1542.94 2193.41 1527.75 2203.92 1517.81 2210.88C1447.81 2259.46 1433.89 2266.84 1408.9 2269.4C1393.42 2270.82 1365.73 2263.15 1346.57 2251.93C1336.48 2245.96 1334.07 2242.7 1334.07 2234.6C1334.07 2223.52 1344.44 2212.44 1359.06 2208.04C1367.58 2205.48 1375.25 2205.48 1385.19 2208.18C1395.27 2210.88 1411.17 2210.88 1420.4 2208.18C1427.93 2205.91 1434.32 2201.79 1486.43 2165.71C1503.33 2153.92 1527.46 2137.16 1539.96 2128.64C1609.11 2080.91 1628.7 2067.42 1642.19 2057.76C1650.43 2051.94 1666.05 2041 1676.98 2033.47C1687.92 2025.94 1700.69 2017.14 1705.38 2013.73C1710.07 2010.46 1724.83 2000.38 1738.04 1991.14C1751.39 1982.05 1768.57 1969.98 1776.38 1964.44C1784.19 1958.9 1799.52 1948.39 1810.45 1941C1864.7 1904.5 1885.57 1888.87 1899.06 1875.24C1913.4 1860.47 1918.08 1853.65 1933.28 1825.38C1939.67 1813.31 1949.04 1795.98 1953.87 1787.03C1958.69 1778.08 1968.92 1758.48 1976.59 1743.71C1984.25 1728.79 1993.06 1712.17 1996.18 1706.78C2001.29 1697.83 2016.91 1668.28 2037.64 1628.65C2047.72 1609.34 2069.73 1567.58 2082.65 1543.43C2123.26 1467.44 2125.39 1463.18 2127.95 1450.39C2128.94 1445.14 2129.37 1434.91 2128.94 1423.69C2128.23 1407.64 2127.67 1404.37 2123.55 1393.72C2119.57 1383.63 2100.26 1345.14 2094.44 1336.05C2092.73 1333.21 2075.7 1301.25 2057.95 1267.16C2053.12 1258.21 2043.75 1240.31 2036.93 1227.39C2030.12 1214.46 2018.33 1192.16 2010.66 1177.67C2003 1163.19 1994.76 1147.56 1992.2 1142.87C1983.4 1126.54 1940.8 1046.14 1929.73 1024.98C1916.1 998.703 1898.77 968.59 1893.09 961.062C1886.56 952.397 1871.09 936.773 1861.57 929.245C1852.77 922.143 1787.74 881.235 1764.59 868.167C1748.26 858.934 1743.72 855.099 1739.88 847.713C1734.2 836.35 1739.74 816.038 1750.11 810.924C1757.07 807.373 1766.44 807.8 1774.96 811.777ZM434.408 1558.91C443.07 1562.61 443.07 1562.46 511.936 1693.99C516.054 1701.81 522.443 1713.88 526.135 1720.98C529.969 1727.94 536.075 1739.87 540.05 1747.26C563.479 1792.43 584.494 1832.2 596.421 1854.5C599.829 1860.75 605.651 1871.97 609.627 1879.36C635.611 1929.07 647.255 1950.95 665.714 1985.18C692.124 2034.18 711.151 2059.61 736 2079.49C747.785 2088.87 780.159 2111.17 798.05 2122.25C802.736 2125.23 818.355 2135.03 832.838 2144.26C847.322 2153.5 863.651 2163.72 869.33 2167.13C874.868 2170.4 885.801 2177.36 893.469 2182.33C901.137 2187.3 916.188 2196.68 926.837 2203.35C937.629 2209.89 954.384 2220.4 964.039 2226.65C973.837 2232.9 987.468 2241.56 994.283 2245.82C1026.09 2265.85 1036.17 2273.24 1042.42 2281.05C1056.05 2298.66 1056.48 2312.3 1043.84 2343.12C1021.55 2397.24 998.969 2430.33 979.232 2437.72C960.063 2444.82 967.589 2444.68 761.132 2444.68C592.588 2444.68 566.461 2444.4 555.244 2442.55C533.093 2438.71 520.74 2434.6 500.861 2424.65C485.099 2416.84 478.568 2412.58 466.782 2402.49C427.593 2368.83 406.436 2331.62 400.472 2285.88C398.626 2271.39 398.342 2225.94 398.626 1922.68L399.052 1576.1L402.602 1569.71C407.43 1561.04 413.961 1556.92 422.765 1556.92C426.599 1556.92 431.852 1557.78 434.408 1558.91ZM2414.63 1560.05C2417.33 1561.9 2421.02 1566.44 2423.01 1570.42L2426.7 1577.38L2427.13 1919.84C2427.41 2163.44 2427.13 2266.42 2425.99 2277.07C2422.58 2309.17 2413.21 2336.02 2396.17 2362.15C2376.01 2393.4 2333.98 2425.22 2299.05 2436.02C2293.65 2437.72 2282.15 2440.28 2273.63 2441.84C2258.3 2444.68 2250.91 2444.68 1956 2444.68C1687.92 2444.68 1653.27 2444.4 1645.74 2442.41C1629.98 2438.43 1623.73 2432.61 1622.6 2420.68C1622.03 2414.57 1622.6 2411.87 1626.43 2404.34C1632.11 2392.84 1639.07 2387.01 1691.04 2350.65C1700.41 2344.12 1715.46 2333.75 1724.55 2327.5C1733.64 2321.25 1755.5 2306.19 1772.97 2293.97C1790.43 2281.76 1812.44 2266.7 1821.81 2260.6C1831.19 2254.35 1857.03 2236.87 1879.32 2221.68C1922.91 2191.99 1953.58 2171.39 1965.94 2163.3C1996.18 2143.84 2068.6 2094.41 2083.22 2083.33C2110.34 2062.87 2131.92 2036.17 2152.37 1997.96C2157.77 1987.73 2166.71 1971.12 2172.25 1961.03C2177.65 1950.8 2190.14 1927.22 2199.8 1908.48C2209.59 1889.73 2221.24 1867.99 2225.5 1860.18C2229.9 1852.37 2235.44 1842.14 2237.71 1837.45C2239.98 1832.77 2249.21 1815.15 2258.16 1798.39C2267.1 1781.63 2280.73 1756.07 2288.26 1741.58C2295.78 1727.09 2307 1706.07 2313.11 1694.7C2319.21 1683.34 2327.02 1668.28 2330.57 1661.32C2337.81 1646.98 2364.37 1597.12 2373.17 1581.5C2384.81 1560.62 2389.07 1556.92 2401.99 1556.92C2407.96 1556.92 2411.22 1557.78 2414.63 1560.05Z" fill="#1A2035"/>
<path d="M562.342 471.162C544.167 475.139 523.01 484.798 508.243 496.019C492.765 507.667 485.95 515.053 476.862 529.683C465.077 548.432 457.835 571.585 455.138 598.573C453.008 620.021 453.86 1133.78 455.989 1140.03C456.983 1142.73 458.403 1144.29 460.249 1144.29C463.089 1144.29 464.083 1142.73 489.074 1095.29C517.188 1042.31 527.27 1023.28 534.653 1009.36C538.771 1001.54 548.71 982.652 556.662 967.453C564.756 952.255 575.831 931.091 581.511 920.58C587.19 910.069 600.112 885.354 610.193 865.894C620.416 846.292 632.486 823.992 636.888 816.18C641.431 808.367 648.673 794.731 653.075 785.783C669.262 753.398 692.548 720.87 713.705 701.268C732.874 683.513 752.469 669.877 818.496 628.97C834.541 618.885 857.969 604.112 870.465 596.016C882.96 588.062 899.005 577.977 905.963 573.716C921.014 564.625 982.923 525.28 1015.3 504.4C1027.79 496.303 1042.56 486.929 1048.1 483.52C1060.31 476.133 1062.58 473.719 1060.17 471.304C1058.89 470.026 1003.09 469.6 815.372 469.315C604.797 469.173 571.003 469.458 562.342 471.162Z" fill="#1A2035"/>
<path d="M1973.6 470.878C1969.63 471.872 1963.38 474.429 1959.83 476.418C1948.47 483.094 1942.65 492.184 1926.75 527.836C1919.5 544.029 1918.37 547.722 1917.94 557.097L1917.37 567.892L1925.04 575.846C1932.57 583.801 1935.41 585.647 2006.12 628.117C2055.96 658.088 2090.75 681.241 2106.93 695.161C2127.81 713.2 2151.66 746.438 2174.66 789.902C2181.91 803.538 2191.99 822.43 2196.96 831.804C2202.07 841.179 2214.42 864.758 2224.65 884.359C2234.73 903.819 2247.36 927.824 2252.76 937.625C2258.01 947.426 2266.53 963.334 2271.65 973.135C2276.76 982.936 2285.42 999.555 2291.1 1010.07C2296.78 1020.58 2312.11 1049.84 2325.18 1074.84C2353.01 1127.96 2359.82 1140.46 2363.51 1144.15C2366.78 1147.56 2367.63 1146.85 2369.34 1139.75C2371.18 1131.51 2371.04 606.101 2369.05 590.334C2366.07 565.903 2357.12 541.188 2344.91 523.433C2327.02 497.582 2298.62 478.974 2265.82 471.73C2254.04 469.031 2246.51 468.889 2117.16 469.031C2013.65 469.174 1979.14 469.6 1973.6 470.878Z" fill="#1A2035"/>
<path d="M455.707 1712.46C454.997 1717.15 454.429 1845.27 454.429 1997.25V2273.52L458.263 2287.3C463.091 2304.34 471.61 2322.81 479.846 2334.46C495.891 2357.04 522.443 2374.37 555.528 2383.89L566.603 2387.01L753.181 2387.44C962.193 2388.01 949.698 2388.57 961.199 2377.92C970.003 2369.82 987.894 2333.6 988.746 2322.52C989.172 2316.99 988.604 2313.15 987.042 2310.03C984.628 2305.34 972.417 2296.11 942.882 2277.07C901.989 2250.65 870.608 2230.48 858.965 2223.1C852.149 2218.83 838.802 2210.17 829.147 2203.92C819.633 2197.67 804.44 2187.87 795.636 2182.19C723.646 2136.03 710.157 2126.65 692.55 2110.88C664.72 2085.88 649.384 2064.01 618.146 2005.06C610.621 1991 594.008 1959.61 581.086 1935.46C568.307 1911.17 553.398 1883.05 548.144 1872.97C532.525 1842.71 512.078 1804.36 504.126 1789.87C500.009 1782.48 494.755 1772.54 492.483 1767.85C482.118 1746.69 463.375 1712.03 460.251 1708.2L456.843 1703.94L455.707 1712.46Z" fill="#1A2035"/>
<path d="M2361.1 1713.45C2357.98 1719.13 2349.46 1735.33 2342.22 1749.39C2334.97 1763.45 2319.07 1793.85 2306.86 1816.86C2294.65 1839.87 2281.87 1864.16 2278.46 1870.83C2262.7 1901.52 2201.64 2016.43 2191.56 2034.61C2181.05 2053.22 2167.42 2073.39 2157.2 2085.32C2146.69 2097.39 2125.96 2116.85 2113.89 2125.66C2106.22 2131.34 2051.56 2167.98 2026.14 2184.75C2019.61 2189.01 1998.74 2203.07 1979.71 2215.85C1960.82 2228.64 1932.57 2247.81 1916.95 2258.32C1901.33 2268.98 1876.48 2285.88 1861.57 2296.11C1846.8 2306.19 1831.47 2316.56 1827.49 2319.12C1795.4 2340 1748.12 2374.94 1745.56 2379.77C1743.43 2383.89 1745.71 2385.17 1758.06 2386.59C1764.87 2387.44 1867.39 2387.72 2014.21 2387.44L2259.15 2387.01L2270.23 2383.89C2286.7 2379.06 2305.3 2370.68 2315.52 2363.29C2320.49 2359.74 2329.86 2351.36 2336.25 2344.54C2345.76 2334.6 2349.31 2329.49 2354.99 2317.84C2358.83 2309.88 2363.8 2297.24 2365.93 2289.86L2369.9 2276.36V1992.28C2369.9 1795.41 2369.48 1707.49 2368.34 1705.64C2367.06 1703.51 2366.07 1704.65 2361.1 1713.45Z" fill="#1A2035"/>
</g>
<defs>
<clipPath id="clip0_71_17">
<rect width="2825" height="2855" rx="258" fill="white"/>
</clipPath>
</defs>
</svg>
