<svg width="2731" height="2731" viewBox="0 0 2731 2731" fill="none" xmlns="http://www.w3.org/2000/svg">
<rect width="2730.67" height="2730.67" rx="80" fill="white"/>
<path d="M0 1365.33V2662.67C0 2700.22 30.4446 2730.67 68 2730.67H1365.33H2662.67C2700.22 2730.67 2730.67 2700.22 2730.67 2662.67V1365.33V68.0003C2730.67 30.4449 2700.22 0.000183105 2662.67 0.000183105H1365.33H68.0001C30.4447 0.000183105 0 30.4448 0 68.0002V1365.33ZM1145.73 413.334C1153.6 414.534 1156 415.467 1159.33 418.667C1162.8 422.134 1163.33 423.734 1163.73 431.6C1164.13 439.867 1163.87 441.067 1160.4 446C1156.4 451.467 1138.13 464.667 1106 485.334C1096.53 491.467 1078.8 502.934 1066.67 510.667C1035.07 531.067 988.267 560.934 966.933 574.267C960.133 578.534 945.467 587.734 934.267 594.8C923.067 601.867 906 612.667 896.267 618.8C886.533 624.934 873.333 633.334 866.933 637.467C860.533 641.6 851.2 647.467 846 650.534C840.933 653.6 831.6 659.334 825.333 663.334C819.067 667.334 808.4 674 801.467 678.267C774.933 694.534 758.533 706.4 742 721.067C734.933 727.334 720.267 744.4 714.267 753.334C706.133 765.334 699.467 777.334 676.667 821.334C665.867 842.267 649.467 873.467 640.267 890.667C631.067 907.867 617.733 933.067 610.667 946.667C603.6 960.267 593.067 980 587.333 990.667C573.333 1016.8 554.8 1051.73 544.267 1072C539.6 1081.2 533.333 1092.67 530.533 1097.6C527.6 1102.4 525.333 1106.93 525.333 1107.47C525.333 1108.4 512.133 1133.47 492.933 1168.67C487.733 1178.13 481.733 1189.47 479.6 1193.73C473.867 1205.73 460 1229.33 455.467 1235.2C450.4 1241.73 441.6 1245.87 435.6 1244.53C424.667 1242.27 419.6 1237.33 416 1225.6C413.333 1217.2 413.333 1211.87 413.333 899.467C413.333 589.2 413.467 581.6 416 564.8C417.467 555.334 419.867 543.467 421.467 538.4C425.333 525.334 437.333 500.4 445.6 488.267C454.533 475.2 480.533 449.2 492.667 441.067C503.867 433.734 523.333 424.4 538.133 419.6C560.667 412 549.2 412.267 854.4 412.134C1038.4 412.134 1139.47 412.534 1145.73 413.334ZM2170.8 414C2187.87 416.534 2198.13 419.867 2218 429.334C2241.2 440.267 2260.27 455.6 2277.6 477.2C2289.07 491.334 2293.47 498.667 2301.2 515.867C2309.47 534.267 2311.2 540.267 2314.67 561.334C2317.33 577.734 2317.33 582.534 2317.33 899.067V1211.41C2317.33 1217.19 2316.39 1222.93 2314.53 1228.4C2313.07 1232.93 2311.07 1237.47 2310.27 1238.4C2307.87 1241.33 2300 1244 2293.33 1244C2286.4 1244 2278.53 1239.47 2274.13 1232.67C2271.07 1228.13 2252.27 1194.8 2248.13 1186.67C2242.53 1176 2218 1129.33 2207.07 1108.67C2201.2 1097.6 2190 1076.4 2182 1061.33C2158.67 1016.67 2119.07 942.134 2108 921.334C2102.27 910.667 2085.6 879.2 2070.93 851.334C2056.27 823.467 2042.4 797.067 2040 792.667C2037.6 788.267 2033.33 780.134 2030.4 774.667C2011.73 739.867 1985.6 713.6 1943.07 686.934C1911.47 667.2 1893.87 656.4 1880.8 648.8C1855.6 634 1821.6 613.334 1812.67 607.067C1802.13 599.734 1795.33 591.6 1788.27 577.467C1783.6 567.867 1783.33 566.934 1783.33 554.134C1783.33 538.534 1784.27 535.6 1800.4 499.734C1819.6 457.334 1826.13 445.734 1836.8 435.2C1848 424.267 1859.6 417.867 1874.67 414.534C1883.73 412.4 1897.6 412.267 2021.07 412.134C2136.4 412 2159.47 412.267 2170.8 414ZM1401.73 431.2C1414.27 434.4 1428.8 440.934 1446 451.067C1486.13 474.667 1498.67 483.6 1498.67 488.4C1498.67 491.6 1487.33 492.667 1452 492.667H1432.3C1424.6 492.667 1416.96 491.359 1409.7 488.8L1404.4 486.934C1385.6 480.4 1373.73 478.934 1358.67 481.2C1345.73 483.067 1328 491.867 1300.67 509.867C1282.8 521.734 1238.93 550.4 1174.93 592.134C1164.13 599.2 1126.27 623.6 1090.67 646.4C1055.07 669.2 1016.13 694.267 1004 702.134C969.067 724.934 962 729.467 939.067 744.134C927.2 751.734 911.733 761.6 904.667 766C841.467 805.334 825.867 819.467 804.267 856C800.667 862.267 792.133 877.867 785.333 890.667C778.533 903.467 770.133 919.067 766.667 925.334C763.2 931.6 753.6 949.6 745.333 965.334C737.067 981.067 726.8 1000.27 722.667 1008C718.533 1015.73 714.133 1023.73 713.067 1026C708 1036.4 689.733 1071.07 684.667 1080C679.2 1089.73 675.067 1097.47 652.667 1140C646.667 1151.33 639.867 1164 637.733 1168C633.067 1176.4 606.4 1226.4 589.733 1258C583.467 1269.73 576.8 1282 574.933 1285.33C566.533 1299.87 554.133 1326.8 551.867 1335.33C546.4 1355.87 547.333 1381.73 554 1401.07C557.867 1412.4 592.4 1482.13 597.333 1488.67C597.867 1489.33 601.867 1496.93 606.4 1505.33C617.867 1527.47 638 1565.47 650.667 1589.33C656.667 1600.67 666.933 1619.87 673.333 1632C679.733 1644.13 689.333 1662.13 694.667 1672C704.667 1690.67 709.333 1699.47 734.667 1748C742.933 1763.73 752.4 1781.73 755.6 1788C758.933 1794.27 763.2 1802.27 765.333 1806C767.333 1809.6 772.133 1818.67 776 1826C786.533 1846 796.8 1860.8 808 1872C819.6 1883.73 839.333 1899.2 851.867 1906.67C856.667 1909.47 866.533 1915.6 873.6 1920.27C880.8 1924.93 893.467 1932.8 902 1938C910.4 1943.07 935.333 1958.4 957.2 1972C979.067 1985.6 1003.33 2000.53 1011.2 2005.33C1038 2021.6 1064.8 2039.6 1067.73 2043.33C1076.93 2054.93 1072.93 2075.73 1060.4 2082.53C1051.73 2087.07 1042 2083.2 1004.53 2060.27C995.067 2054.53 984 2047.73 980 2045.33C976 2042.8 970.533 2039.6 968 2037.87C965.467 2036.27 958.533 2032 952.667 2028.4C946.8 2024.8 934.533 2017.07 925.333 2011.33C916.133 2005.6 902.667 1997.2 895.333 1992.67C888 1988.13 873.067 1978.8 862.267 1971.87C851.333 1964.93 836.8 1956 830 1951.73C796.133 1931.33 769.867 1906.8 749.067 1876.13C743.867 1868.53 732 1847.73 722.667 1830.13C702.533 1791.73 682.933 1754.67 668.4 1727.33C662.533 1716.27 651.333 1695.07 643.333 1680C629.6 1653.87 618.267 1632.4 598.667 1596C593.733 1586.8 582.533 1565.87 573.867 1549.33C565.2 1532.8 556.4 1516.27 554.4 1512.67C547.733 1500.8 514.8 1436.53 509.467 1425.07C500.8 1406.67 495.733 1379.33 496.933 1358C497.6 1346.53 502 1324.67 505.6 1314.93C508.4 1307.33 526.133 1272.4 544.4 1238C550.267 1226.93 559.6 1209.33 565.333 1198.67C570.933 1188 580 1171.2 585.333 1161.33C599.867 1134.53 649.2 1042 669.733 1003.33C685.2 974 701.2 943.867 713.333 921.334C718.667 911.467 728.667 892.534 735.733 879.334C757.733 837.467 763.333 827.734 773.067 813.467C786.8 793.2 795.067 783.734 810.667 770.267C825.467 757.467 838.533 748.667 916.667 699.067C927.733 692.134 940.533 683.867 945.333 680.667C950.133 677.6 962.667 669.467 973.333 662.667C984 655.867 1003.2 643.334 1016 634.8C1028.8 626.4 1046.93 614.534 1056.27 608.667C1065.6 602.8 1097.87 581.867 1128 562.134C1158.27 542.4 1186.67 524.134 1191.07 521.467C1199.6 516.4 1246.53 485.6 1284.93 459.867C1296.8 451.867 1310.67 443.334 1315.6 440.934C1343.73 426.8 1371.87 423.734 1401.73 431.2ZM1617.33 568C1622.13 568.8 1630.27 571.467 1635.6 574C1653.6 582.8 1662 597.334 1662 619.334C1662 627.6 1661.2 633.6 1659.47 638.667C1656.53 647.2 1640.53 684.934 1591.33 799.334C1571.73 844.8 1551.6 891.6 1546.67 903.334C1541.73 915.067 1533.07 935.2 1527.33 948C1521.73 960.8 1511.6 984.267 1504.67 1000C1497.87 1015.73 1487.73 1039.2 1482 1052C1476.4 1064.8 1467.33 1085.47 1462 1098C1456.67 1110.4 1450 1125.47 1447.33 1131.33C1437.07 1153.47 1429.2 1176.27 1429.2 1184.13C1429.07 1198.4 1437.73 1210.13 1452.8 1216.13C1458 1218.25 1463.55 1219.35 1469.16 1219.37L1601.33 1220C1729.6 1220.67 1742.53 1220.93 1748.67 1222.93C1757.87 1226.13 1765.33 1232.8 1770.8 1242.93C1775.2 1251.07 1775.33 1251.73 1775.33 1266.67V1268.51C1775.33 1277.35 1773.04 1286.04 1768.67 1293.73C1765.07 1300.13 1747.73 1326.13 1730.13 1351.6C1712.67 1377.2 1693.47 1405.2 1687.6 1414C1677.47 1428.93 1654.27 1462.53 1615.33 1518.67C1606.4 1531.47 1586.4 1560.53 1570.67 1583.33C1555.07 1606 1539.33 1628.8 1535.73 1634C1525.6 1648.53 1492.53 1696.53 1482 1712C1476.8 1719.73 1466.93 1734.13 1460 1744C1453.2 1753.87 1443.33 1768.27 1438 1776C1432.8 1783.73 1423.2 1797.73 1416.53 1807.2C1394 1839.87 1378.67 1862.13 1344.93 1910.93C1311.6 1959.47 1298.53 1978.4 1288.13 1993.33C1282.27 2001.73 1273.6 2014.4 1268.8 2021.33C1258.67 2036 1244.93 2055.6 1225.47 2083.47C1217.73 2094.4 1208.53 2107.87 1204.8 2113.33C1179.07 2151.07 1159.73 2175.47 1150.93 2181.6C1146.53 2184.67 1142.8 2186 1137.87 2186.4C1126.27 2187.33 1121.33 2181.87 1121.33 2167.73C1121.33 2156.93 1124.13 2147.2 1153.33 2056C1159.2 2038 1168 2010.13 1173.2 1994C1188.4 1945.87 1208.93 1881.07 1218.13 1852.67C1222.8 1838 1230.27 1814.53 1234.8 1800.67C1239.2 1786.67 1245.2 1767.2 1248.13 1757.33C1251.07 1747.47 1256.93 1728.53 1261.33 1715.33C1265.6 1702.13 1273.33 1678.13 1278.4 1662C1283.47 1645.87 1291.2 1621.87 1295.33 1608.67C1306.8 1572.8 1309.33 1562.93 1309.33 1553.47C1309.33 1540.13 1307.2 1535.07 1298 1525.87C1283.73 1511.87 1296.13 1512.8 1134.67 1512C982.267 1511.2 990.8 1511.73 976.8 1503.47C970.267 1499.6 962.8 1490.27 958.533 1480.67C956.133 1475.2 955.733 1472.4 956.267 1461.47C956.8 1450.53 957.867 1445.47 964.267 1426C968.4 1413.47 976 1389.87 981.333 1373.33C986.667 1356.8 996 1328 1002 1309.33C1013.2 1275.07 1028.67 1227.33 1048.27 1166C1054.13 1147.6 1063.6 1118.27 1069.33 1100.67C1075.07 1083.07 1083.73 1056 1088.67 1040.67C1093.6 1025.2 1102.27 998.534 1108 981.334C1113.73 964.134 1120.53 942.8 1123.33 934C1126 925.2 1130.13 912.267 1132.67 905.334C1136.8 893.2 1152 846.4 1159.47 822.667C1161.33 816.4 1169.47 791.2 1177.47 766.667C1198 703.734 1204.13 689.467 1220 669.734C1235.33 650.534 1248.13 640.667 1306.67 602.4C1338.67 581.467 1363.6 571.734 1395.33 567.6C1404.8 566.4 1609.2 566.8 1617.33 568ZM1762.67 670.667C1775.47 676.934 1833.33 711.467 1887.2 744.934C1931.33 772.4 1952.4 796.534 1984 856C1990.8 868.8 2000.93 888 2006.67 898.667C2016.53 917.067 2036.93 955.334 2060.67 1000C2066.8 1011.33 2076.67 1030 2082.67 1041.33C2088.8 1052.67 2098.13 1070.13 2103.33 1080C2114.8 1101.6 2130.53 1131.07 2144.67 1157.33C2206.27 1272 2225.47 1310.53 2230.13 1328.67C2235.2 1348.13 2236 1374.13 2232 1393.33C2228.53 1410.27 2225.2 1420.53 2219.33 1432C2207.07 1456.27 2194 1481.47 2184 1500C2168.8 1528.53 2154.4 1555.47 2141.07 1580.67C2134.8 1592.4 2124.8 1611.33 2118.67 1622.67C2108.53 1641.73 2094.8 1667.6 2076.4 1702.67C2072.27 1710.4 2067.6 1719.07 2066 1722C2063.33 1726.8 2056.4 1739.87 2036.67 1778C2009.33 1830.8 1992.4 1861.73 1983.6 1874.67C1964.13 1903.6 1937.33 1929.07 1899.73 1954C1883.73 1964.53 1880.13 1967.07 1858.8 1981.87C1848.13 1989.33 1836.67 1997.07 1833.2 1999.33C1829.73 2001.47 1812.13 2013.47 1794 2026C1775.87 2038.4 1754.4 2053.2 1746.13 2058.67C1709.87 2083.33 1700.53 2089.73 1698 2092C1696.53 2093.33 1682.27 2103.2 1666.27 2114.13C1623.33 2143.47 1621.07 2145.07 1582.67 2171.87C1563.2 2185.33 1541.07 2200.8 1533.33 2206C1521.07 2214.27 1482.4 2241.33 1467.33 2252.13C1424.4 2282.93 1402 2295.33 1379.07 2300.67C1363.47 2304.4 1340.53 2302.93 1323.47 2297.33C1303.07 2290.4 1236.67 2250.8 1227.47 2240C1220.8 2232 1219.87 2221.2 1225.33 2212.4C1229.2 2206 1235.07 2203.33 1245.6 2203.47C1253.2 2203.6 1256 2204.4 1264.93 2208.93C1270.67 2211.87 1279.47 2216.8 1284.4 2219.87C1300.27 2229.6 1323.2 2241.2 1333.47 2244.8C1345.73 2249.07 1361.73 2250.27 1374 2248C1385.07 2245.87 1406.13 2235.33 1423.87 2223.07C1430.93 2218.13 1442.13 2210.4 1448.67 2206C1455.33 2201.47 1471.2 2190.4 1484 2181.33C1510.67 2162.53 1527.6 2150.8 1551.47 2134.67C1570.27 2122 1593.73 2105.6 1610.67 2093.47C1616.93 2088.93 1625.87 2082.53 1630.67 2079.07C1635.47 2075.6 1647.47 2067.33 1657.33 2060.67C1667.2 2054 1689.07 2038.93 1705.73 2027.2C1722.53 2015.6 1741.47 2002.4 1747.87 1998C1801.73 1960.93 1860.4 1920.93 1876.67 1910.13C1900.4 1894.27 1919.87 1877.87 1931.07 1864C1945.07 1846.53 1951.6 1835.2 1988.8 1764C2013.33 1716.93 2032.27 1680.93 2054.27 1640C2057.2 1634.53 2066 1618 2073.73 1603.33C2081.47 1588.67 2097.47 1558.4 2109.33 1536C2160.13 1440.8 2173.33 1414.8 2177.87 1401.07C2182.93 1386 2184.53 1370.4 2182.67 1354.67C2180 1331.33 2175.73 1320.13 2154.67 1281.33C2150.4 1273.6 2142.8 1259.2 2137.6 1249.33C2128.8 1232.27 2124.4 1224.13 2098.67 1176C2092.67 1164.67 2082.27 1145.07 2075.6 1132.67C2069.07 1120.13 2059.47 1102.13 2054.27 1092.67C2046 1077.2 2030.67 1048 2010.13 1008.67C2002.13 993.467 1974.27 940.934 1958.27 911.334C1934.93 867.734 1920.53 842.934 1913.33 833.334C1904.93 822.4 1889.33 806.534 1880.27 799.867C1875.33 796.267 1836.13 772 1814.67 759.334C1810.67 756.934 1796.27 748.267 1782.67 740C1769.07 731.734 1753.07 722.134 1747.2 718.534C1732.8 710 1728.13 705.867 1725.2 699.334C1719.33 686.667 1723.87 672.267 1735.33 667.2C1742.8 663.867 1750.53 664.934 1762.67 670.667ZM1099.87 746.4C1103.07 752.4 1092.4 787.6 1083.47 800.8C1076.53 811.2 1072.8 814.134 1047.2 830.534C1034 838.934 1018.53 848.8 1012.67 852.667C1006.8 856.534 990.667 867.067 976.667 876.134C942.267 898.267 927.2 910.934 914.4 928C908.4 936 893.067 963.734 862 1022.67C822 1098.53 816.533 1108.93 798.667 1142C791.2 1155.87 782.133 1172.67 778.667 1179.33C756 1222.53 729.333 1272.4 722 1285.33C710.8 1305.2 697.333 1335.33 695.2 1345.47C692.267 1358.93 693.333 1381.2 697.333 1394C700.4 1403.47 712 1427.2 733.467 1467.33C740.133 1479.73 750.133 1498.67 755.6 1509.33C761.2 1520 766.8 1530.4 768 1532.67C769.333 1534.8 779.733 1554.4 791.067 1576C802.4 1597.6 816.4 1624.27 822.267 1635.33C831.867 1653.33 857.6 1701.87 864.667 1715.33C901.467 1785.47 905.6 1790 977.467 1833.73C996.8 1845.47 1046.27 1875.33 1060 1883.47C1098.8 1906.4 1102.93 1909.73 1108.67 1920.8C1114.8 1933.07 1113.6 1947.47 1105.73 1955.2C1103.07 1958 1101.07 1958.67 1096.13 1958.67C1089.6 1958.67 1078.4 1953.07 1044.67 1933.07C990.533 1901.07 983.2 1896.67 959.467 1881.87C949.867 1876 936.267 1867.73 929.333 1863.73C907.467 1850.93 889.333 1836.93 874.533 1821.73C854.133 1800.53 847.2 1789.6 813.333 1725.33C798.667 1697.47 779.2 1660.67 770 1643.33C766.933 1637.47 761.067 1626.4 756.933 1618.67C746.133 1597.87 725.733 1559.33 714 1537.33C708.4 1526.67 698.933 1508.67 693.067 1497.33C687.2 1486 680.933 1474.27 679.333 1471.33C675.333 1464.27 660.8 1436.4 655.2 1425.2C641.867 1398.13 638.133 1363.07 645.467 1334C648.133 1323.73 655.333 1305.07 660.133 1296.53C661.467 1294.13 666.533 1284.53 671.333 1275.2C676.267 1265.73 680.8 1257.33 681.467 1256.53C682.267 1255.6 688.4 1244.27 695.2 1231.2C702 1218 711.733 1199.87 716.667 1190.67C721.6 1181.47 731.6 1162.93 738.667 1149.33C745.867 1135.73 755.467 1117.73 760 1109.33C764.533 1100.93 775.467 1080.13 784.267 1063.33C793.067 1046.4 804 1025.73 808.667 1017.33C813.2 1008.93 822.267 991.734 828.667 979.334C858.667 921.334 876.267 893.2 894 875.2C905.2 863.867 928.667 845.067 937.467 840.534C939.6 839.467 947.867 834.267 955.867 828.934C969.733 819.734 988.8 807.467 1018 788.8C1025.33 784.134 1039.47 775.067 1049.33 768.667C1087.07 744.4 1096.53 740.267 1099.87 746.4ZM1706 787.2C1709.73 788.934 1728.27 799.734 1747.33 811.334C1766.4 822.934 1787.33 835.734 1793.87 839.6C1819.87 855.334 1840.67 874 1854.8 894C1862.53 904.8 1878.8 932.4 1886.67 948C1889.07 952.8 1894.53 962.934 1898.67 970.667C1906.27 984.534 1933.87 1036.67 1948.67 1064.67C1952.93 1072.67 1960.4 1086.8 1965.33 1096C1970.27 1105.2 1978.8 1121.07 1984.27 1131.33C1989.87 1141.6 1995.47 1152.4 1996.8 1155.33C1998.13 1158.27 2000.53 1162.8 2002 1165.33C2004.8 1169.87 2024.53 1206.8 2037.33 1231.33C2040.8 1237.87 2047.6 1250.67 2052.4 1259.47C2057.33 1268.4 2061.33 1276 2061.33 1276.4C2061.33 1276.8 2065.2 1284.27 2070 1292.8C2083.07 1316.8 2092.4 1349.47 2091.2 1368C2089.2 1400.93 2085.33 1410.4 2036.27 1502C2013.73 1544.27 2003.07 1564.27 1996.67 1576.67C1983.07 1602.53 1943.47 1677.87 1930 1703.33C1881.6 1795.07 1878.67 1799.73 1855.47 1823.73C1842.53 1837.07 1830.13 1846.93 1801.33 1866.67C1791.47 1873.33 1782.13 1880 1780.67 1881.33C1779.2 1882.53 1764.93 1892.53 1749.07 1903.47C1716.4 1925.87 1706.27 1932.93 1674 1955.33C1661.6 1964 1643.87 1976.27 1634.67 1982.4C1625.47 1988.67 1606.93 2001.6 1593.33 2011.2C1579.73 2020.67 1563.33 2032.13 1556.67 2036.67C1550.13 2041.2 1537.07 2050.27 1527.73 2056.8C1518.27 2063.33 1504.13 2073.2 1496.13 2078.67C1488.13 2084.13 1473.87 2094 1464.53 2100.53C1398.8 2146.13 1385.73 2153.07 1362.27 2155.47C1347.73 2156.8 1321.73 2149.6 1303.73 2139.07C1294.27 2133.47 1292 2130.4 1292 2122.8C1292 2112.4 1301.73 2102 1315.47 2097.87C1323.47 2095.47 1330.67 2095.47 1340 2098C1349.47 2100.53 1364.4 2100.53 1373.07 2098C1380.13 2095.87 1386.13 2092 1435.07 2058.13C1450.93 2047.07 1473.6 2031.33 1485.33 2023.33C1550.27 1978.53 1568.67 1965.87 1581.33 1956.8C1589.07 1951.33 1603.73 1941.07 1614 1934C1624.27 1926.93 1636.27 1918.67 1640.67 1915.47C1645.07 1912.4 1658.93 1902.93 1671.33 1894.27C1683.87 1885.73 1700 1874.4 1707.33 1869.2C1714.67 1864 1729.07 1854.13 1739.33 1847.2C1790.27 1812.93 1809.87 1798.27 1822.53 1785.47C1836 1771.6 1840.4 1765.2 1854.67 1738.67C1860.67 1727.33 1869.47 1711.07 1874 1702.67C1878.53 1694.27 1888.13 1675.87 1895.33 1662C1902.53 1648 1910.8 1632.4 1913.73 1627.33C1918.53 1618.93 1933.2 1591.2 1952.67 1554C1962.13 1535.87 1982.8 1496.67 1994.93 1474C2033.07 1402.67 2035.07 1398.67 2037.47 1386.67C2038.4 1381.73 2038.8 1372.13 2038.4 1361.6C2037.73 1346.53 2037.2 1343.47 2033.33 1333.47C2029.6 1324 2011.47 1287.87 2006 1279.33C2004.4 1276.67 1988.4 1246.67 1971.73 1214.67C1967.2 1206.27 1958.4 1189.47 1952 1177.33C1945.6 1165.2 1934.53 1144.27 1927.33 1130.67C1920.13 1117.07 1912.4 1102.4 1910 1098C1901.73 1082.67 1861.73 1007.2 1851.33 987.334C1838.53 962.667 1822.27 934.4 1816.93 927.334C1810.8 919.2 1796.27 904.534 1787.33 897.467C1779.07 890.8 1718 852.4 1696.27 840.134C1680.93 831.467 1676.67 827.867 1673.07 820.934C1667.73 810.267 1672.93 791.2 1682.67 786.4C1689.2 783.067 1698 783.467 1706 787.2ZM447.2 1488.53C455.333 1492 455.333 1491.87 520 1615.33C523.867 1622.67 529.867 1634 533.333 1640.67C536.933 1647.2 542.667 1658.4 546.4 1665.33C568.4 1707.73 588.133 1745.07 599.333 1766C602.533 1771.87 608 1782.4 611.733 1789.33C636.133 1836 647.067 1856.53 664.4 1888.67C689.2 1934.67 707.067 1958.53 730.4 1977.2C741.467 1986 771.867 2006.93 788.667 2017.33C793.067 2020.13 807.733 2029.33 821.333 2038C834.933 2046.67 850.267 2056.27 855.6 2059.47C860.8 2062.53 871.067 2069.07 878.267 2073.73C885.467 2078.4 899.6 2087.2 909.6 2093.47C919.733 2099.6 935.467 2109.47 944.533 2115.33C953.733 2121.2 966.533 2129.33 972.933 2133.33C1002.8 2152.13 1012.27 2159.07 1018.13 2166.4C1030.93 2182.93 1031.33 2195.73 1019.47 2224.67C998.533 2275.47 977.333 2306.53 958.8 2313.47C940.8 2320.13 947.867 2320 754 2320C595.733 2320 571.2 2319.73 560.667 2318C539.867 2314.4 528.267 2310.53 509.6 2301.2C494.8 2293.87 488.667 2289.87 477.6 2280.4C440.8 2248.8 420.933 2213.87 415.333 2170.93C413.6 2157.33 413.333 2114.67 413.6 1830L413.992 1511.53C413.997 1507.03 415.147 1502.6 417.333 1498.67C421.867 1490.53 428 1486.67 436.267 1486.67C439.867 1486.67 444.8 1487.47 447.2 1488.53ZM2306.67 1489.6C2309.2 1491.33 2312.67 1495.6 2314.53 1499.33C2316.81 1503.62 2318 1508.41 2318.01 1513.26L2318.4 1827.33C2318.67 2056 2318.4 2152.67 2317.33 2162.67C2314.13 2192.8 2305.33 2218 2289.33 2242.53C2270.4 2271.87 2230.93 2301.73 2198.13 2311.87C2193.07 2313.47 2182.27 2315.87 2174.27 2317.33C2159.87 2320 2152.93 2320 1876 2320C1624.27 2320 1591.73 2319.73 1584.67 2317.87C1569.87 2314.13 1564 2308.67 1562.93 2297.47C1562.4 2291.73 1562.93 2289.2 1566.53 2282.13C1571.87 2271.33 1578.4 2265.87 1627.2 2231.73C1636 2225.6 1650.13 2215.87 1658.67 2210C1667.2 2204.13 1687.73 2190 1704.13 2178.53C1720.53 2167.07 1741.2 2152.93 1750 2147.2C1758.8 2141.33 1783.07 2124.93 1804 2110.67C1844.93 2082.8 1873.73 2063.47 1885.33 2055.87C1913.73 2037.6 1981.73 1991.2 1995.47 1980.8C2020.93 1961.6 2041.2 1936.53 2060.4 1900.67C2065.47 1891.07 2073.87 1875.47 2079.07 1866C2084.13 1856.4 2095.87 1834.27 2104.93 1816.67C2114.13 1799.07 2125.07 1778.67 2129.07 1771.33C2133.2 1764 2138.4 1754.4 2140.53 1750C2142.67 1745.6 2151.33 1729.07 2159.73 1713.33C2168.13 1697.6 2180.93 1673.6 2188 1660C2195.07 1646.4 2205.6 1626.67 2211.33 1616C2217.07 1605.33 2224.4 1591.2 2227.73 1584.67C2234.53 1571.2 2259.47 1524.4 2267.73 1509.73C2278.67 1490.13 2282.67 1486.67 2294.8 1486.67C2300.4 1486.67 2303.47 1487.47 2306.67 1489.6Z" fill="#1A2035"/>
<path d="M567.333 467.467C550.266 471.2 530.4 480.267 516.533 490.8C502 501.733 495.6 508.667 487.066 522.4C476 540 469.2 561.733 466.666 587.067C464.666 607.2 465.466 1089.47 467.466 1095.33C468.4 1097.87 469.733 1099.33 471.466 1099.33C474.133 1099.33 475.066 1097.87 498.533 1053.33C524.933 1003.6 534.4 985.733 541.333 972.667C545.2 965.333 554.533 947.6 562 933.333C569.6 919.067 580 899.2 585.333 889.333C590.666 879.467 602.8 856.267 612.266 838C621.866 819.6 633.2 798.667 637.333 791.333C641.6 784 648.4 771.2 652.533 762.8C667.733 732.4 689.6 701.867 709.466 683.467C727.466 666.8 745.866 654 807.866 615.6C822.933 606.133 844.933 592.267 856.666 584.667C868.4 577.2 883.466 567.733 890 563.733C904.133 555.2 962.266 518.267 992.666 498.667C1004.4 491.067 1018.27 482.267 1023.47 479.067C1034.93 472.133 1037.07 469.867 1034.8 467.6C1033.6 466.4 981.2 466 804.933 465.733C607.2 465.6 575.466 465.867 567.333 467.467Z" fill="#1A2035"/>
<path d="M1892.53 467.2C1888.8 468.134 1882.93 470.534 1879.6 472.4C1868.93 478.667 1863.47 487.2 1848.53 520.667C1841.73 535.867 1840.67 539.334 1840.27 548.134C1839.93 554.597 1842.28 560.912 1846.78 565.572L1846.93 565.734C1854 573.2 1856.67 574.934 1923.07 614.8C1969.87 642.934 2002.53 664.667 2017.73 677.734C2037.33 694.667 2059.73 725.867 2081.33 766.667C2088.13 779.467 2097.6 797.2 2102.27 806C2107.07 814.8 2118.67 836.934 2128.27 855.334C2137.73 873.6 2149.6 896.134 2154.67 905.334C2159.6 914.534 2167.6 929.467 2172.4 938.667C2177.2 947.867 2185.33 963.467 2190.67 973.334C2196 983.2 2210.4 1010.67 2222.67 1034.13C2248.8 1084 2255.2 1095.73 2258.67 1099.2C2261.73 1102.4 2262.53 1101.73 2264.13 1095.07C2265.87 1087.33 2265.73 594.134 2263.87 579.334C2261.07 556.4 2252.67 533.2 2241.2 516.534C2224.4 492.267 2197.73 474.8 2166.93 468C2155.87 465.467 2148.8 465.334 2027.33 465.467C1930.13 465.6 1897.73 466 1892.53 467.2Z" fill="#1A2035"/>
<path d="M467.2 1632.67C466.533 1637.07 466 1757.33 466 1900V2150.05C466 2156.21 466.838 2162.34 468.49 2168.28L469.6 2172.27C474.133 2188.27 482.133 2205.6 489.867 2216.53C504.933 2237.73 529.867 2254 560.933 2262.93L562.356 2263.33C568.313 2265.01 574.471 2265.87 580.66 2265.89L746.533 2266.27C942.8 2266.8 931.067 2267.33 941.867 2257.33C950.133 2249.73 966.933 2215.73 967.733 2205.33C968.133 2200.13 967.6 2196.53 966.133 2193.6C963.867 2189.2 952.4 2180.53 924.667 2162.67C886.267 2137.87 856.8 2118.93 845.867 2112C839.467 2108 826.933 2099.87 817.867 2094C808.933 2088.13 794.667 2078.93 786.4 2073.6C718.8 2030.27 706.133 2021.47 689.6 2006.67C663.467 1983.2 649.067 1962.67 619.733 1907.33C612.667 1894.13 597.067 1864.67 584.933 1842C572.933 1819.2 558.933 1792.8 554 1783.33C539.333 1754.93 520.133 1718.93 512.667 1705.33C508.8 1698.4 503.867 1689.07 501.733 1684.67C492 1664.8 474.4 1632.27 471.467 1628.67C470.263 1627.16 467.844 1627.84 467.59 1629.74L467.2 1632.67Z" fill="#1A2035"/>
<path d="M2256.4 1633.6C2253.47 1638.93 2245.47 1654.13 2238.67 1667.33C2231.87 1680.53 2216.93 1709.07 2205.47 1730.67C2194 1752.27 2182 1775.07 2178.8 1781.33C2164 1810.13 2106.67 1918 2097.2 1935.07C2087.33 1952.53 2074.53 1971.47 2064.93 1982.67C2055.07 1994 2035.6 2012.27 2024.27 2020.53C2017.07 2025.87 1965.73 2060.27 1941.87 2076C1935.73 2080 1916.13 2093.2 1898.27 2105.2C1880.53 2117.2 1854 2135.2 1839.33 2145.07C1824.67 2155.07 1801.33 2170.93 1787.33 2180.53C1773.47 2190 1759.07 2199.73 1755.33 2202.13C1725.2 2221.73 1680.8 2254.53 1678.4 2259.07C1676.4 2262.93 1678.53 2264.13 1690.13 2265.47C1696.53 2266.27 1792.8 2266.53 1930.67 2266.27L2151.32 2265.88C2157.52 2265.87 2163.69 2265.01 2169.66 2263.33L2171.07 2262.93C2186.53 2258.4 2204 2250.53 2213.6 2243.6C2218.27 2240.27 2227.07 2232.4 2233.07 2226C2242 2216.67 2245.33 2211.87 2250.67 2200.93C2254.27 2193.47 2258.93 2181.6 2260.93 2174.67L2261.89 2171.41C2263.73 2165.17 2264.67 2158.7 2264.67 2152.19V1895.33C2264.67 1710.53 2264.27 1628 2263.2 1626.27C2262 1624.27 2261.07 1625.33 2256.4 1633.6Z" fill="#1A2035"/>
</svg>
